<?xml version="1.0" encoding="iso-8859-1"?>
<!-- Generator: Adobe Illustrator 19.0.0, SVG Export Plug-In . SVG Version: 6.00 Build 0)  -->
<svg version="1.1" id="Capa_1" xmlns="http://www.w3.org/2000/svg" xmlns:xlink="http://www.w3.org/1999/xlink" x="0px" y="0px"
	 viewBox="0 0 492.231 492.231" style="enable-background:new 0 0 492.231 492.231;" xml:space="preserve">
<path style="fill:#000100;" d="M350.569,68.724l72.94,72.94L141.653,423.52l-72.94-72.94L350.569,68.724z M481.367,10.859
	c-14.471-14.472-37.964-14.472-52.436,0c-9.528,9.542-22.693,32.995-26.573,52.098l-12.794-12.794
	c-5.648-5.653-14.787-5.653-20.44,0l-6.901,6.901l72.936,72.94l6.905-6.905c5.648-5.648,5.648-14.788,0-20.437l-12.793-12.798
	c19.12-3.876,42.568-17.027,52.096-26.569C495.853,48.824,495.853,25.344,481.367,10.859z M50.154,369.132
	c-5.653,5.652-5.653,14.793,0,20.441l12.793,12.793c-19.102,3.881-42.555,17.031-52.083,26.561
	c-14.485,14.484-14.485,37.965,0,52.449c14.472,14.467,37.97,14.467,52.437,0c9.528-9.547,22.693-32.977,26.573-52.084l12.78,12.781
	c5.648,5.648,14.787,5.648,20.435,0l6.906-6.906l-72.941-72.936L50.154,369.132z"/>
<g>
</g>
<g>
</g>
<g>
</g>
<g>
</g>
<g>
</g>
<g>
</g>
<g>
</g>
<g>
</g>
<g>
</g>
<g>
</g>
<g>
</g>
<g>
</g>
<g>
</g>
<g>
</g>
<g>
</g>
</svg>
